<?xml version="1.0" standalone="no"?>
<svg xmlns="http://www.w3.org/2000/svg" width="24" height="24">
  <rect width="24" height="24" opacity="0"/>
  <path d="M7.1 6.2C8.4 5.1 10.1 4.5 12 4.5C16.1 4.5 19.5 7.9 19.5 12C19.5 16.1 16.1 19.5 12 19.5C8.7 19.5 5.8 17.3 4.8 14.2C4.7 13.8 4.9 13.4 5.3 13.3C5.7 13.2 6.1 13.4 6.3 13.8C7.1 16.3 9.4 18 12 18C15.3 18 18 15.3 18 12C18 8.7 15.3 6 12 6C10.5 6 9.2 6.5 8.2 7.4H10.6C11 7.4 11.3 7.7 11.3 8.1C11.3 8.5 11 8.9 10.6 8.9H6.5C6.1 8.9 5.8 8.5 5.8 8.1V4C5.8 3.6 6.1 3.3 6.5 3.3C6.9 3.3 7.2 3.6 7.2 4V6.2H7.1Z" fill="#211B17"/>
</svg>
