<?xml version="1.0" standalone="no"?>
<svg xmlns="http://www.w3.org/2000/svg" width="24" height="24">
  <rect width="24" height="24" opacity="0"/>
  <path d="M7.5 6.2C5.3 6.2 3.6 7.8 3.6 9.9C3.6 11 4.1 12 4.9 12.7L4.4 15.1C4.3 15.5 4.7 15.8 5.1 15.6L7.6 14.2H11.1C13.3 14.2 15 12.5 15 10.4C15 8.1 13.3 6.2 11.1 6.2H7.5ZM7.5 7.7H11.1C12.5 7.7 13.5 8.9 13.5 10.4C13.5 11.7 12.5 12.8 11.1 12.8H7.4C7.3 12.8 7.1 12.8 7 12.9L6.2 13.4L6.4 12.6C6.5 12.3 6.4 12 6.1 11.8C5.5 11.3 5.1 10.7 5.1 9.9C5.1 8.6 6.1 7.7 7.5 7.7Z" fill="#211B17"/>
  <path d="M13.1 10.7C13.2 10.4 13.5 10.2 13.8 10.2H16.2C18.4 10.2 20.1 11.9 20.1 14C20.1 15.1 19.6 16 18.9 16.7L19.4 18.9C19.5 19.3 19.1 19.7 18.7 19.5L16.4 18.2H12.9C11.1 18.2 9.6 17 9.1 15.3C9 14.9 9.2 14.5 9.6 14.4C10 14.3 10.4 14.5 10.5 14.9C10.8 16 11.8 16.8 12.9 16.8H16.6C16.7 16.8 16.9 16.8 17 16.9L17.7 17.3L17.6 16.7C17.5 16.4 17.6 16.1 17.8 15.9C18.4 15.4 18.7 14.8 18.7 14C18.7 12.7 17.6 11.7 16.2 11.7H13.8C13.4 11.7 13.1 11.4 13.1 11C13.1 10.9 13.1 10.8 13.1 10.7Z" fill="#211B17"/>
</svg>
